<?xml version="1.0" encoding="UTF-8"?>
<svg id="Layer_2" data-name="Layer 2" xmlns="http://www.w3.org/2000/svg" viewBox="0 0 631.44 289.61">
  <defs>
    <style>
      .cls-1 {
        fill: #f1d47b;
      }

      .cls-2 {
        fill: #8aba8a;
      }

      .cls-3 {
        fill: #519acb;
      }
    </style>
  </defs>
  <g id="Layer_1-2" data-name="Layer 1">
    <g>
      <g>
        <path class="cls-3" d="M84.49,13.39C69.81-.2,48.49-3.8,30.16,4.21,11.84,12.22,0,30.32,0,50.32v225.78c0,7.46,6.05,13.51,13.51,13.51h54.03c7.46,0,13.51-6.05,13.51-13.51V120.6l25.79,23.86,59.66-55.21L84.49,13.39Z"/>
        <path class="cls-2" d="M251.94,120.59v155.5c0,7.46,6.06,13.51,13.52,13.51h54.03c7.46,0,13.51-6.05,13.51-13.51V50.32c0-20-11.84-38.1-30.17-46.11-18.32-8.01-39.65-4.41-54.33,9.17l-82,75.87,59.66,55.21,25.78-23.87Z"/>
      </g>
      <g>
        <path class="cls-3" d="M408.33,289.61h-39.93c-11.03,0-19.96-8.94-19.96-19.96V82.86C348.43,37.1,385.53,0,431.29,0h84.88c11.03,0,19.96,8.94,19.96,19.96v39.93c0,11.03-8.94,19.96-19.96,19.96h-84.88c-1.66,0-3.01,1.35-3.01,3.01v186.78c0,11.03-8.94,19.96-19.96,19.96Z"/>
        <path class="cls-3" d="M496.16,204.01h-73.25v-79.85h73.25c11.03,0,19.96,8.94,19.96,19.96v39.93c0,11.03-8.94,19.96-19.96,19.96Z"/>
      </g>
      <rect class="cls-2" x="551.58" width="79.85" height="289.61" rx="19.96" ry="19.96"/>
      <path class="cls-1" d="M166.49,89.26l-59.66,55.21,50.52,46.74c5.18,4.79,13.17,4.79,18.35,0l50.46-46.74-59.66-55.21Z"/>
    </g>
  </g>
</svg>